<svg xmlns="http://www.w3.org/2000/svg" viewBox="0 0 100 100" fill="none">
  <!-- Module icon for Odoo apps list -->
  <rect width="100" height="100" rx="16" fill="#16a34a"/>
  <g transform="translate(25, 10)">
    <path d="M25 75 L25 20" stroke="white" stroke-width="3" stroke-linecap="round"/>
    <path d="M25 60 Q15 52 8 56 Q15 48 25 52" fill="rgba(255,255,255,0.7)"/>
    <path d="M25 60 Q35 52 42 56 Q35 48 25 52" fill="white"/>
    <path d="M25 45 Q15 37 8 41 Q15 33 25 37" fill="rgba(255,255,255,0.7)"/>
    <path d="M25 45 Q35 37 42 41 Q35 33 25 37" fill="white"/>
    <path d="M25 30 Q15 22 10 26 Q15 18 25 22" fill="rgba(255,255,255,0.7)"/>
    <path d="M25 30 Q35 22 40 26 Q35 18 25 22" fill="white"/>
    <ellipse cx="25" cy="15" rx="5" ry="8" fill="white"/>
  </g>
</svg>
