<svg xmlns="http://www.w3.org/2000/svg" viewBox="0 0 280 60" fill="none">
  <!-- Wheat/leaf icon -->
  <g transform="translate(4, 4)">
    <!-- Stem -->
    <path d="M26 52 L26 12" stroke="#16a34a" stroke-width="2.5" stroke-linecap="round"/>
    <!-- Leaves (pairs) -->
    <path d="M26 40 Q18 34 12 38 Q18 30 26 34" fill="#22c55e"/>
    <path d="M26 40 Q34 34 40 38 Q34 30 26 34" fill="#16a34a"/>
    <path d="M26 30 Q18 24 12 28 Q18 20 26 24" fill="#22c55e"/>
    <path d="M26 30 Q34 24 40 28 Q34 20 26 24" fill="#16a34a"/>
    <path d="M26 20 Q18 14 14 18 Q18 10 26 14" fill="#22c55e"/>
    <path d="M26 20 Q34 14 38 18 Q34 10 26 14" fill="#16a34a"/>
    <!-- Top grain -->
    <ellipse cx="26" cy="8" rx="4" ry="6" fill="#16a34a"/>
  </g>
  <!-- "Nekazari" text -->
  <text x="62" y="42" font-family="system-ui, -apple-system, 'Segoe UI', Roboto, Helvetica, Arial, sans-serif"
        font-size="36" font-weight="700" fill="#166534" letter-spacing="-0.5">
    Nekazari
  </text>
</svg>
